<?xml version="1.0" encoding="UTF-8" standalone="no"?>
<svg
   xmlns:dc="http://purl.org/dc/elements/1.1/"
   xmlns:cc="http://creativecommons.org/ns#"
   xmlns:rdf="http://www.w3.org/1999/02/22-rdf-syntax-ns#"
   xmlns:svg="http://www.w3.org/2000/svg"
   xmlns="http://www.w3.org/2000/svg"
   xmlns:sodipodi="http://sodipodi.sourceforge.net/DTD/sodipodi-0.dtd"
   xmlns:inkscape="http://www.inkscape.org/namespaces/inkscape"
   sodipodi:docname="basic_classification.svg"
   inkscape:version="1.0 (4035a4fb49, 2020-05-01)"
   id="svg8"
   version="1.1"
   viewBox="0 0 127.00098 36.018429"
   height="36.018429mm"
   width="127.00098mm">
  <defs
     id="defs2">
    <clipPath
       clipPathUnits="userSpaceOnUse"
       id="clipPath851">
      <path
         d="M 0,0 H 612 V 792 H 0 Z"
         id="path849" />
    </clipPath>
  </defs>
  <sodipodi:namedview
     inkscape:window-maximized="1"
     inkscape:window-y="-9"
     inkscape:window-x="-9"
     inkscape:window-height="991"
     inkscape:window-width="1920"
     fit-margin-bottom="0"
     fit-margin-right="0"
     fit-margin-left="0"
     fit-margin-top="0"
     showgrid="false"
     inkscape:document-rotation="0"
     inkscape:current-layer="layer1"
     inkscape:document-units="mm"
     inkscape:cy="13.743449"
     inkscape:cx="502.55061"
     inkscape:zoom="0.35649007"
     inkscape:pageshadow="2"
     inkscape:pageopacity="0.0"
     borderopacity="1.0"
     bordercolor="#666666"
     pagecolor="#ffffff"
     id="base" />
  <metadata
     id="metadata5">
    <rdf:RDF>
      <cc:Work
         rdf:about="">
        <dc:format>image/svg+xml</dc:format>
        <dc:type
           rdf:resource="http://purl.org/dc/dcmitype/StillImage" />
        <dc:title></dc:title>
      </cc:Work>
    </rdf:RDF>
  </metadata>
  <g
     transform="translate(27.133182,-144.53038)"
     id="layer1"
     inkscape:groupmode="layer"
     inkscape:label="Ebene 1">
    <g
       id="g841"
       inkscape:label="basic_classification"
       transform="matrix(0.35277777,0,0,-0.35277777,-71.75908,290.8711)">
      <g
         id="g843" />
      <g
         id="g845">
        <g
           id="g847"
           clip-path="url(#clipPath851)">
          <g
             id="g853"
             transform="matrix(1,0,0,-1,0,792)">
            <path
               d="m 126.5,453 360,-1"
               style="fill:none;stroke:#060000;stroke-width:1;stroke-linecap:butt;stroke-linejoin:miter;stroke-miterlimit:4;stroke-dasharray:none;stroke-opacity:1"
               id="path855" />
          </g>
          <path
             d="m 152.5,334.5 c -2.7614,0 -5,2.2386 -5,5 0,2.7614 2.2386,5 5,5 2.7614,0 5,-2.2386 5,-5 0,-2.7614 -2.2386,-5 -5,-5 z"
             style="fill:#000000;fill-opacity:1;fill-rule:nonzero;stroke:none"
             id="path857" />
          <g
             id="g859"
             transform="matrix(1,0,0,-1,0,792)">
            <path
               d="m 152.5,457.5 c -2.7614,0 -5,-2.2386 -5,-5 0,-2.7614 2.2386,-5 5,-5 2.7614,0 5,2.2386 5,5 0,2.7614 -2.2386,5 -5,5 z"
               style="fill:none;stroke:#060000;stroke-width:1;stroke-linecap:butt;stroke-linejoin:miter;stroke-miterlimit:4;stroke-dasharray:none;stroke-opacity:1"
               id="path861" />
          </g>
          <path
             d="m 182.5,334.5 c -2.7614,0 -5,2.2386 -5,5 0,2.7614 2.2386,5 5,5 2.7614,0 5,-2.2386 5,-5 0,-2.7614 -2.2386,-5 -5,-5 z"
             style="fill:#000000;fill-opacity:1;fill-rule:nonzero;stroke:none"
             id="path863" />
          <g
             id="g865"
             transform="matrix(1,0,0,-1,0,792)">
            <path
               d="m 182.5,457.5 c -2.7614,0 -5,-2.2386 -5,-5 0,-2.7614 2.2386,-5 5,-5 2.7614,0 5,2.2386 5,5 0,2.7614 -2.2386,5 -5,5 z"
               style="fill:none;stroke:#060000;stroke-width:1;stroke-linecap:butt;stroke-linejoin:miter;stroke-miterlimit:4;stroke-dasharray:none;stroke-opacity:1"
               id="path867" />
          </g>
          <path
             d="m 448.5,334.5 c -2.7614,0 -5,2.2386 -5,5 0,2.7614 2.2386,5 5,5 2.7614,0 5,-2.2386 5,-5 0,-2.7614 -2.2386,-5 -5,-5 z"
             style="fill:#000000;fill-opacity:1;fill-rule:nonzero;stroke:none"
             id="path869" />
          <g
             id="g871"
             transform="matrix(1,0,0,-1,0,792)">
            <path
               d="m 448.5,457.5 c -2.7614,0 -5,-2.2386 -5,-5 0,-2.7614 2.2386,-5 5,-5 2.7614,0 5,2.2386 5,5 0,2.7614 -2.2386,5 -5,5 z"
               style="fill:none;stroke:#060000;stroke-width:1;stroke-linecap:butt;stroke-linejoin:miter;stroke-miterlimit:4;stroke-dasharray:none;stroke-opacity:1"
               id="path873" />
          </g>
          <path
             d="m 386.5,334.5 c -2.7614,0 -5,2.2386 -5,5 0,2.7614 2.2386,5 5,5 2.7614,0 5,-2.2386 5,-5 0,-2.7614 -2.2386,-5 -5,-5 z"
             style="fill:#000000;fill-opacity:1;fill-rule:nonzero;stroke:none"
             id="path875" />
          <g
             id="g877"
             transform="matrix(1,0,0,-1,0,792)">
            <path
               d="m 386.5,457.5 c -2.7614,0 -5,-2.2386 -5,-5 0,-2.7614 2.2386,-5 5,-5 2.7614,0 5,2.2386 5,5 0,2.7614 -2.2386,5 -5,5 z"
               style="fill:none;stroke:#060000;stroke-width:1;stroke-linecap:butt;stroke-linejoin:miter;stroke-miterlimit:4;stroke-dasharray:none;stroke-opacity:1"
               id="path879" />
          </g>
          <path
             d="m 326.5,334.5 c -2.7614,0 -5,2.2386 -5,5 0,2.7614 2.2386,5 5,5 2.7614,0 5,-2.2386 5,-5 0,-2.7614 -2.2386,-5 -5,-5 z"
             style="fill:#000000;fill-opacity:1;fill-rule:nonzero;stroke:none"
             id="path881" />
          <g
             id="g883"
             transform="matrix(1,0,0,-1,0,792)">
            <path
               d="m 326.5,457.5 c -2.7614,0 -5,-2.2386 -5,-5 0,-2.7614 2.2386,-5 5,-5 2.7614,0 5,2.2386 5,5 0,2.7614 -2.2386,5 -5,5 z"
               style="fill:none;stroke:#060000;stroke-width:1;stroke-linecap:butt;stroke-linejoin:miter;stroke-miterlimit:4;stroke-dasharray:none;stroke-opacity:1"
               id="path885" />
          </g>
          <path
             d="m 278.5,334.5 c -2.7614,0 -5,2.2386 -5,5 0,2.7614 2.2386,5 5,5 2.7614,0 5,-2.2386 5,-5 0,-2.7614 -2.2386,-5 -5,-5 z"
             style="fill:#000000;fill-opacity:1;fill-rule:nonzero;stroke:none"
             id="path887" />
          <g
             id="g889"
             transform="matrix(1,0,0,-1,0,792)">
            <path
               d="m 278.5,457.5 c -2.7614,0 -5,-2.2386 -5,-5 0,-2.7614 2.2386,-5 5,-5 2.7614,0 5,2.2386 5,5 0,2.7614 -2.2386,5 -5,5 z"
               style="fill:none;stroke:#060000;stroke-width:1;stroke-linecap:butt;stroke-linejoin:miter;stroke-miterlimit:4;stroke-dasharray:none;stroke-opacity:1"
               id="path891" />
          </g>
          <path
             d="m 219.5,334.5 c -2.7614,0 -5,2.2386 -5,5 0,2.7614 2.2386,5 5,5 2.7614,0 5,-2.2386 5,-5 0,-2.7614 -2.2386,-5 -5,-5 z"
             style="fill:#000000;fill-opacity:1;fill-rule:nonzero;stroke:none"
             id="path893" />
          <g
             id="g895"
             transform="matrix(1,0,0,-1,0,792)">
            <path
               d="m 219.5,457.5 c -2.7614,0 -5,-2.2386 -5,-5 0,-2.7614 2.2386,-5 5,-5 2.7614,0 5,2.2386 5,5 0,2.7614 -2.2386,5 -5,5 z"
               style="fill:none;stroke:#060000;stroke-width:1;stroke-linecap:butt;stroke-linejoin:miter;stroke-miterlimit:4;stroke-dasharray:none;stroke-opacity:1"
               id="path897" />
          </g>
          <g
             id="g899"
             transform="matrix(1,0,0,-1,0,792)">
            <path
               d="m 126.5,404 360,-1"
               style="fill:none;stroke:#000000;stroke-width:1;stroke-linecap:butt;stroke-linejoin:miter;stroke-miterlimit:4;stroke-dasharray:none;stroke-opacity:1"
               id="path901" />
          </g>
          <path
             d="m 209.5,383.5 c -2.7614,0 -5,2.2386 -5,5 0,2.7614 2.2386,5 5,5 2.7614,0 5,-2.2386 5,-5 0,-2.7614 -2.2386,-5 -5,-5 z"
             style="fill:#000000;fill-opacity:1;fill-rule:nonzero;stroke:none"
             id="path903" />
          <g
             id="g905"
             transform="matrix(1,0,0,-1,0,792)">
            <path
               d="m 209.5,408.5 c -2.7614,0 -5,-2.2386 -5,-5 0,-2.7614 2.2386,-5 5,-5 2.7614,0 5,2.2386 5,5 0,2.7614 -2.2386,5 -5,5 z"
               style="fill:none;stroke:#060000;stroke-width:1;stroke-linecap:butt;stroke-linejoin:miter;stroke-miterlimit:4;stroke-dasharray:none;stroke-opacity:1"
               id="path907" />
          </g>
          <path
             d="m 306.5,383.5 c -2.7614,0 -5,2.2386 -5,5 0,2.7614 2.2386,5 5,5 2.7614,0 5,-2.2386 5,-5 0,-2.7614 -2.2386,-5 -5,-5 z"
             style="fill:#000000;fill-opacity:1;fill-rule:nonzero;stroke:none"
             id="path909" />
          <g
             id="g911"
             transform="matrix(1,0,0,-1,0,792)">
            <path
               d="m 306.5,408.5 c -2.7614,0 -5,-2.2386 -5,-5 0,-2.7614 2.2386,-5 5,-5 2.7614,0 5,2.2386 5,5 0,2.7614 -2.2386,5 -5,5 z"
               style="fill:none;stroke:#060000;stroke-width:1;stroke-linecap:butt;stroke-linejoin:miter;stroke-miterlimit:4;stroke-dasharray:none;stroke-opacity:1"
               id="path913" />
          </g>
          <path
             d="m 419.5,383.5 c -2.7614,0 -5,2.2386 -5,5 0,2.7614 2.2386,5 5,5 2.7614,0 5,-2.2386 5,-5 0,-2.7614 -2.2386,-5 -5,-5 z"
             style="fill:#000000;fill-opacity:1;fill-rule:nonzero;stroke:none"
             id="path915" />
          <g
             id="g917"
             transform="matrix(1,0,0,-1,0,792)">
            <path
               d="m 419.5,408.5 c -2.7614,0 -5,-2.2386 -5,-5 0,-2.7614 2.2386,-5 5,-5 2.7614,0 5,2.2386 5,5 0,2.7614 -2.2386,5 -5,5 z"
               style="fill:none;stroke:#060000;stroke-width:1;stroke-linecap:butt;stroke-linejoin:miter;stroke-miterlimit:4;stroke-dasharray:none;stroke-opacity:1"
               id="path919" />
          </g>
          <path
             d="m 248.5,335.5 c -2.7614,0 -5,2.2386 -5,5 0,2.7614 2.2386,5 5,5 2.7614,0 5,-2.2386 5,-5 0,-2.7614 -2.2386,-5 -5,-5 z"
             style="fill:#000000;fill-opacity:1;fill-rule:nonzero;stroke:none"
             id="path921" />
          <g
             id="g923"
             transform="matrix(1,0,0,-1,0,792)">
            <path
               d="m 248.5,456.5 c -2.7614,0 -5,-2.2386 -5,-5 0,-2.7614 2.2386,-5 5,-5 2.7614,0 5,2.2386 5,5 0,2.7614 -2.2386,5 -5,5 z"
               style="fill:none;stroke:#060000;stroke-width:1;stroke-linecap:butt;stroke-linejoin:miter;stroke-miterlimit:4;stroke-dasharray:none;stroke-opacity:1"
               id="path925" />
          </g>
          <path
             d="m 471,334.5 c -2.7614,0 -5,2.2386 -5,5 0,2.7614 2.2386,5 5,5 2.7614,0 5,-2.2386 5,-5 0,-2.7614 -2.2386,-5 -5,-5 z"
             style="fill:#000000;fill-opacity:1;fill-rule:nonzero;stroke:none"
             id="path927" />
          <g
             id="g929"
             transform="matrix(1,0,0,-1,0,792)">
            <path
               d="m 471,457.5 c -2.7614,0 -5,-2.2386 -5,-5 0,-2.7614 2.2386,-5 5,-5 2.7614,0 5,2.2386 5,5 0,2.7614 -2.2386,5 -5,5 z"
               style="fill:none;stroke:#060000;stroke-width:1;stroke-linecap:butt;stroke-linejoin:miter;stroke-miterlimit:4;stroke-dasharray:none;stroke-opacity:1"
               id="path931" />
          </g>
          <path
             d="m 362,335 c -2.7614,0 -5,2.2386 -5,5 0,2.7614 2.2386,5 5,5 2.7614,0 5,-2.2386 5,-5 0,-2.7614 -2.2386,-5 -5,-5 z"
             style="fill:#000000;fill-opacity:1;fill-rule:nonzero;stroke:none"
             id="path933" />
          <g
             id="g935"
             transform="matrix(1,0,0,-1,0,792)">
            <path
               d="m 362,457 c -2.7614,0 -5,-2.2386 -5,-5 0,-2.7614 2.2386,-5 5,-5 2.7614,0 5,2.2386 5,5 0,2.7614 -2.2386,5 -5,5 z"
               style="fill:none;stroke:#060000;stroke-width:1;stroke-linecap:butt;stroke-linejoin:miter;stroke-miterlimit:4;stroke-dasharray:none;stroke-opacity:1"
               id="path937" />
          </g>
          <path
             d="m 418,334.5 c -2.7614,0 -5,2.2386 -5,5 0,2.7614 2.2386,5 5,5 2.7614,0 5,-2.2386 5,-5 0,-2.7614 -2.2386,-5 -5,-5 z"
             style="fill:#000000;fill-opacity:1;fill-rule:nonzero;stroke:none"
             id="path939" />
          <g
             id="g941"
             transform="matrix(1,0,0,-1,0,792)">
            <path
               d="m 418,457.5 c -2.7614,0 -5,-2.2386 -5,-5 0,-2.7614 2.2386,-5 5,-5 2.7614,0 5,2.2386 5,5 0,2.7614 -2.2386,5 -5,5 z"
               style="fill:none;stroke:#060000;stroke-width:1;stroke-linecap:butt;stroke-linejoin:miter;stroke-miterlimit:4;stroke-dasharray:none;stroke-opacity:1"
               id="path943" />
          </g>
          <g
             id="g945"
             transform="matrix(1,0,0,-1,0,792)">
            <path
               d="m 157.5,452.5 52,-49"
               style="fill:none;stroke:#000000;stroke-width:1;stroke-linecap:butt;stroke-linejoin:miter;stroke-miterlimit:4;stroke-dasharray:none;stroke-opacity:1"
               id="path947" />
          </g>
          <g
             id="g949"
             transform="matrix(1,0,0,-1,0,792)">
            <path
               d="m 182.5,457.5 27,-54"
               style="fill:none;stroke:#000000;stroke-width:1;stroke-linecap:butt;stroke-linejoin:miter;stroke-miterlimit:4;stroke-dasharray:none;stroke-opacity:1"
               id="path951" />
          </g>
          <path
             d="m 213.5,414.6718 c 0,0.0457 -0.0296,0.1523 -0.1626,0.1523 -0.074,0 -0.0888,-0.0152 -0.2662,-0.2285 l -0.7097,-0.8682 c -0.3845,0.7159 -1.1533,1.0967 -2.1144,1.0967 -1.8779,0 -3.6522,-1.7517 -3.6522,-3.5949 0,-1.2338 0.7837,-1.9345 1.5377,-2.163 l 1.5822,-0.4265 c 0.547,-0.1371 1.3603,-0.3656 1.3603,-1.6147 0,-1.3709 -1.2125,-2.8028 -2.6615,-2.8028 -0.9463,0 -2.5876,0.3351 -2.5876,2.224 0,0.3656 0.0739,0.7312 0.0887,0.8225 0.0148,0.061 0.0296,0.0762 0.0296,0.1067 0,0.1523 -0.1035,0.1675 -0.1774,0.1675 -0.074,0 -0.1035,-0.0152 -0.1479,-0.0609 -0.0591,-0.0609 -0.8872,-3.534 -0.8872,-3.5797 0,-0.0914 0.074,-0.1523 0.1627,-0.1523 0.0739,0 0.0887,0.0152 0.2661,0.2285 l 0.7246,0.8683 c 0.6358,-0.8835 1.6412,-1.0968 2.4988,-1.0968 2.0109,0 3.7557,2.0259 3.7557,3.9148 0,1.051 -0.5027,1.569 -0.7245,1.7822 -0.3401,0.3504 -0.5619,0.4113 -1.8779,0.7616 -0.3253,0.0914 -0.8576,0.2438 -0.9906,0.2742 -0.3993,0.1371 -0.902,0.5789 -0.902,1.3862 0,1.2338 1.1829,2.5286 2.5876,2.5286 1.2272,0 2.1292,-0.655 2.1292,-2.361 0,-0.4875 -0.0592,-0.7617 -0.0592,-0.8531 0,-0.0152 0,-0.1523 0.1775,-0.1523 0.1478,0 0.1626,0.0457 0.2218,0.3047 z"
             style="fill:#000000;fill-opacity:1;fill-rule:nonzero;stroke:none"
             id="path953" />
          <g
             id="g955"
             transform="matrix(1,0,0,-1,126,372.25)">
            <text
               style="font-style:italic;font-variant:normal;font-weight:bold;font-size:12px;font-family:Helvetica;-inkscape-font-specification:Helvetica-BoldOblique;writing-mode:lr-tb;fill:#000000;fill-opacity:1;fill-rule:nonzero;stroke:none"
               id="text959"><tspan
                 x="0 6.4452 13.1184 20.451599 27.1248"
                 y="0"
                 sodipodi:role="line"
                 id="tspan957">Types</tspan></text>
          </g>
          <g
             id="g961"
             transform="matrix(1,0,0,-1,126.5,316.75)">
            <text
               style="font-style:italic;font-variant:normal;font-weight:bold;font-size:12px;font-family:Helvetica;-inkscape-font-specification:Helvetica-BoldOblique;writing-mode:lr-tb;fill:#000000;fill-opacity:1;fill-rule:nonzero;stroke:none"
               id="text965"><tspan
                 x="0 3.3336 10.6632 17.9928 21.326401 27.996 31.329599 38.659199 45.9888 52.658401 55.992001"
                 y="0"
                 sodipodi:role="line"
                 id="tspan963">Individuals</tspan></text>
          </g>
          <g
             id="g967"
             transform="matrix(1,0,0,-1,0,792)">
            <path
               d="m 209.5,403.5 10,48.25"
               style="fill:none;stroke:#000000;stroke-width:1;stroke-linecap:butt;stroke-linejoin:miter;stroke-miterlimit:4;stroke-dasharray:none;stroke-opacity:1"
               id="path969" />
          </g>
          <g
             id="g971"
             transform="matrix(1,0,0,-1,0,792)">
            <path
               d="m 209.5,403.5 38,46.75"
               style="fill:none;stroke:#000000;stroke-width:1;stroke-linecap:butt;stroke-linejoin:miter;stroke-miterlimit:4;stroke-dasharray:none;stroke-opacity:1"
               id="path973" />
          </g>
          <g
             id="g975"
             transform="matrix(1,0,0,-1,0,792)">
            <path
               d="m 278.5,453.25 27,-50.5"
               style="fill:none;stroke:#000000;stroke-width:1;stroke-linecap:butt;stroke-linejoin:miter;stroke-miterlimit:4;stroke-dasharray:none;stroke-opacity:1"
               id="path977" />
          </g>
          <g
             id="g979"
             transform="matrix(1,0,0,-1,0,792)">
            <path
               d="m 328,452.25 -20.5,-47"
               style="fill:none;stroke:#000000;stroke-width:1;stroke-linecap:butt;stroke-linejoin:miter;stroke-miterlimit:4;stroke-dasharray:none;stroke-opacity:1"
               id="path981" />
          </g>
          <g
             id="g983"
             transform="matrix(1,0,0,-1,0,792)">
            <path
               d="M 367,452 308,402.75"
               style="fill:none;stroke:#000000;stroke-width:1;stroke-linecap:butt;stroke-linejoin:miter;stroke-miterlimit:4;stroke-dasharray:none;stroke-opacity:1"
               id="path985" />
          </g>
          <g
             id="g987"
             transform="matrix(1,0,0,-1,0,792)">
            <path
               d="m 387.5,450.75 30.5,-49"
               style="fill:none;stroke:#000000;stroke-width:1;stroke-linecap:butt;stroke-linejoin:miter;stroke-miterlimit:4;stroke-dasharray:none;stroke-opacity:1"
               id="path989" />
          </g>
          <g
             id="g991"
             transform="matrix(1,0,0,-1,0,792)">
            <path
               d="m 419,451.75 1,-49"
               style="fill:none;stroke:#000000;stroke-width:1;stroke-linecap:butt;stroke-linejoin:miter;stroke-miterlimit:4;stroke-dasharray:none;stroke-opacity:1"
               id="path993" />
          </g>
          <g
             id="g995"
             transform="matrix(1,0,0,-1,0,792)">
            <path
               d="m 450,452.75 -30,-50"
               style="fill:none;stroke:#000000;stroke-width:1;stroke-linecap:butt;stroke-linejoin:miter;stroke-miterlimit:4;stroke-dasharray:none;stroke-opacity:1"
               id="path997" />
          </g>
          <g
             id="g999"
             transform="matrix(1,0,0,-1,0,792)">
            <path
               d="m 471.5,452.75 -51.5,-50"
               style="fill:none;stroke:#000000;stroke-width:1;stroke-linecap:butt;stroke-linejoin:miter;stroke-miterlimit:4;stroke-dasharray:none;stroke-opacity:1"
               id="path1001" />
          </g>
          <g
             id="g1003"
             transform="matrix(1,0,0,-1,339.5,315.25)">
            <text
               style="font-style:italic;font-variant:normal;font-weight:bold;font-size:12px;font-family:Helvetica;-inkscape-font-specification:Helvetica-BoldOblique;writing-mode:lr-tb;fill:#000000;fill-opacity:1;fill-rule:nonzero;stroke:none"
               id="text1007"><tspan
                 x="0 8.6664 15.3408 22.0152 25.348801 32.023201 35.3568 44.690399 52.02 55.3536 62.028 68.7024 72.698402"
                 y="0"
                 sodipodi:role="line"
                 id="tspan1005">Basic Objects</tspan></text>
          </g>
          <path
             d="m 308.4795,412.45 c 0.1478,0.6059 0.1971,0.7743 1.4948,0.7743 0.3943,0 0.5257,0 0.5257,0.3198 0,0.2019 -0.1807,0.2019 -0.2464,0.2019 -0.4764,0 -1.692,-0.0505 -2.1683,-0.0505 -0.4929,0 -1.692,0.0505 -2.1848,0.0505 -0.115,0 -0.3286,0 -0.3286,-0.3366 0,-0.1851 0.1479,-0.1851 0.46,-0.1851 0.6899,0 1.1334,0 1.1334,-0.3199 0,-0.0841 0,-0.1178 -0.0328,-0.2693 l -2.2176,-9.0722 c -0.1479,-0.6228 -0.1972,-0.7911 -1.4949,-0.7911 -0.3778,0 -0.5257,0 -0.5257,-0.3367 0,-0.1851 0.1972,-0.1851 0.2465,-0.1851 0.4763,0 1.6755,0.0505 2.1519,0.0505 0.4928,0 1.7084,-0.0505 2.2012,-0.0505 0.1314,0 0.3285,0 0.3285,0.3198 0,0.202 -0.1314,0.202 -0.4928,0.202 -0.2957,0 -0.3778,0 -0.7063,0.0336 -0.345,0.0337 -0.4107,0.101 -0.4107,0.2862 0,0.1346 0.0328,0.2693 0.0657,0.3871 z"
             style="fill:#000000;fill-opacity:1;fill-rule:nonzero;stroke:none"
             id="path1009" />
          <path
             d="m 418.556,412.7838 c 0.1018,0.4352 0.1526,0.6165 0.4748,0.6709 0.1527,0.0182 0.6953,0.0182 1.0345,0.0182 1.204,0 3.0863,0 3.0863,-1.7954 0,-0.6166 -0.2713,-1.8679 -0.9327,-2.5751 -0.4409,-0.4715 -1.3397,-1.0518 -2.8659,-1.0518 h -1.8992 z m 2.4419,-4.969 c 1.7128,0.399 3.7308,1.6684 3.7308,3.5 0,1.5596 -1.5262,2.7203 -3.7477,2.7203 h -4.833 c -0.3391,0 -0.4918,0 -0.4918,-0.3627 0,-0.1995 0.1527,-0.1995 0.4749,-0.1995 0.0339,0 0.3561,0 0.6444,-0.0363 0.3052,-0.0363 0.4578,-0.0544 0.4578,-0.2901 0,-0.0726 -0.0169,-0.127 -0.0678,-0.3446 l -2.2724,-9.7384 c -0.1695,-0.7073 -0.2035,-0.8524 -1.5431,-0.8524 -0.3053,0 -0.4579,0 -0.4579,-0.3627 0,-0.1994 0.2035,-0.1994 0.2374,-0.1994 0.4748,0 1.6619,0.0544 2.1367,0.0544 0.4748,0 1.6788,-0.0544 2.1537,-0.0544 0.1356,0 0.3391,0 0.3391,0.3627 0,0.1994 -0.1526,0.1994 -0.4748,0.1994 -0.6274,0 -1.1023,0 -1.1023,0.3265 0,0.1088 0.0339,0.1994 0.0509,0.3083 l 1.1192,4.8057 h 2.018 c 1.5432,0 1.8484,-1.0156 1.8484,-1.6503 0,-0.272 -0.1357,-0.8342 -0.2374,-1.2513 -0.1187,-0.5078 -0.2713,-1.1788 -0.2713,-1.5414 0,-1.9586 2.0349,-1.9586 2.2554,-1.9586 1.4414,0 2.0349,1.8316 2.0349,2.0855 0,0.2176 -0.1865,0.2176 -0.2035,0.2176 -0.1526,0 -0.1865,-0.1269 -0.2205,-0.2539 -0.4239,-1.342 -1.1531,-1.6502 -1.5431,-1.6502 -0.5596,0 -0.6783,0.3989 -0.6783,1.1062 0,0.5622 0.1017,1.487 0.1695,2.0674 0.034,0.2538 0.0679,0.5984 0.0679,0.8523 0,1.3964 -1.1362,1.9586 -1.5941,2.1399 z"
             style="fill:#000000;fill-opacity:1;fill-rule:nonzero;stroke:none"
             id="path1011" />
          <path
             d="m 441,323.6604 c 0,2.3713 -1.0751,4.1637 -3.4174,4.1637 -1.9966,0 -3.6861,-1.5684 -3.8205,-1.6804 -1.5359,-1.475 -2.1119,-3.1555 -2.1119,-3.1928 0,-0.112 0.096,-0.1307 0.192,-0.1307 0.3648,0 0.672,0.1867 0.96,0.3921 0.3455,0.2427 0.3647,0.2987 0.5759,0.7282 0.1728,0.3734 0.6144,1.2883 1.3247,2.0725 0.4608,0.5041 0.8448,0.7842 1.6127,0.7842 1.8623,0 3.0526,-1.4937 3.0526,-3.9397 0,-3.8089 -2.7838,-7.5806 -6.3356,-7.5806 -2.7262,0 -4.2237,2.1099 -4.2237,4.7799 0,2.5393 1.3439,5.34 4.1469,6.9458 0.192,0.112 0.768,0.4481 0.768,0.6908 0,0.1307 -0.1536,0.1307 -0.192,0.1307 -0.6719,0 -6.3548,-2.9687 -6.3548,-8.5702 0,-2.6139 1.4015,-5.0039 4.5885,-5.0039 3.7438,0 9.2346,3.6596 9.2346,9.4104 z"
             style="fill:#000000;fill-opacity:1;fill-rule:nonzero;stroke:none"
             id="path1013" />
        </g>
      </g>
    </g>
  </g>
</svg>
